<svg xmlns="http://www.w3.org/2000/svg" xmlns:xlink="http://www.w3.org/1999/xlink" width="775" zoomAndPan="magnify" viewBox="0 0 581.25 612.749987" height="817" preserveAspectRatio="xMidYMid meet" version="1.0"><defs><g/></defs><g fill="#ff914d" fill-opacity="1"><g transform="translate(8.319556, 322.267148)"><g><path d="M 68.484375 -79.875 L 46.21875 -79.875 L 46.21875 -88.40625 C 46.21875 -89.300781 45.910156 -90.082031 45.296875 -90.75 C 44.679688 -91.414062 43.925781 -91.75 43.03125 -91.75 L 33.828125 -91.75 C 32.929688 -91.75 32.175781 -91.414062 31.5625 -90.75 C 30.945312 -90.082031 30.640625 -89.300781 30.640625 -88.40625 L 30.640625 -69.15625 C 30.640625 -68.257812 30.945312 -67.472656 31.5625 -66.796875 C 32.175781 -66.128906 32.929688 -65.796875 33.828125 -65.796875 L 48.890625 -65.796875 C 62.734375 -65.578125 69.65625 -58.210938 69.65625 -43.703125 L 69.65625 -20.421875 C 69.65625 -5.691406 62.734375 1.671875 48.890625 1.671875 L 29.140625 1.671875 C 15.296875 1.671875 8.375 -5.691406 8.375 -20.421875 L 8.375 -31.640625 L 30.640625 -31.640625 L 30.640625 -19.59375 C 30.640625 -18.695312 30.945312 -17.910156 31.5625 -17.234375 C 32.175781 -16.566406 32.929688 -16.234375 33.828125 -16.234375 L 44.203125 -16.234375 C 45.097656 -16.234375 45.851562 -16.566406 46.46875 -17.234375 C 47.082031 -17.910156 47.390625 -18.695312 47.390625 -19.59375 L 47.390625 -40.859375 C 47.390625 -41.742188 47.082031 -42.519531 46.46875 -43.1875 C 45.851562 -43.863281 45.097656 -44.203125 44.203125 -44.203125 L 29.140625 -44.203125 C 15.296875 -44.203125 8.375 -51.570312 8.375 -66.3125 L 8.375 -87.90625 C 8.375 -102.632812 15.296875 -110 29.140625 -110 L 47.71875 -110 C 61.5625 -110 68.484375 -102.632812 68.484375 -87.90625 Z M 68.484375 -79.875 "/></g></g></g><g fill="#ff914d" fill-opacity="1"><g transform="translate(102.572695, 322.267148)"><g><path d="M 51.40625 -110 C 65.25 -110 72.171875 -102.632812 72.171875 -87.90625 L 72.171875 0 L 48.71875 0 L 48.71875 -36.328125 L 31.8125 -36.328125 L 31.8125 0 L 8.375 0 L 8.375 -87.90625 C 8.375 -102.632812 15.296875 -110 29.140625 -110 Z M 31.8125 -54.421875 L 48.71875 -54.421875 L 48.71875 -90.75 C 48.71875 -91.644531 48.410156 -92.425781 47.796875 -93.09375 C 47.179688 -93.757812 46.429688 -94.09375 45.546875 -94.09375 L 35 -94.09375 C 34.101562 -94.09375 33.347656 -93.757812 32.734375 -93.09375 C 32.117188 -92.425781 31.8125 -91.644531 31.8125 -90.75 Z M 31.8125 -54.421875 "/></g></g></g><g fill="#ff914d" fill-opacity="1"><g transform="translate(201.345738, 322.267148)"><g><path d="M 52.078125 -108.328125 L 74.671875 -108.328125 L 52.234375 0 L 25.28125 0 L 2.84375 -108.328125 L 25.625 -108.328125 L 38.84375 -29.296875 Z M 52.078125 -108.328125 "/></g></g></g><g fill="#ff914d" fill-opacity="1"><g transform="translate(296.77071, 322.267148)"><g><path d="M 51.40625 -110 C 65.25 -110 72.171875 -102.632812 72.171875 -87.90625 L 72.171875 0 L 48.71875 0 L 48.71875 -36.328125 L 31.8125 -36.328125 L 31.8125 0 L 8.375 0 L 8.375 -87.90625 C 8.375 -102.632812 15.296875 -110 29.140625 -110 Z M 31.8125 -54.421875 L 48.71875 -54.421875 L 48.71875 -90.75 C 48.71875 -91.644531 48.410156 -92.425781 47.796875 -93.09375 C 47.179688 -93.757812 46.429688 -94.09375 45.546875 -94.09375 L 35 -94.09375 C 34.101562 -94.09375 33.347656 -93.757812 32.734375 -93.09375 C 32.117188 -92.425781 31.8125 -91.644531 31.8125 -90.75 Z M 31.8125 -54.421875 "/></g></g></g><g fill="#ff914d" fill-opacity="1"><g transform="translate(395.543754, 322.267148)"><g><path d="M 70.484375 0 L 47.046875 0 L 47.046875 -89.90625 C 47.046875 -90.800781 46.738281 -91.582031 46.125 -92.25 C 45.507812 -92.925781 44.757812 -93.265625 43.875 -93.265625 L 34.828125 -93.265625 C 33.929688 -93.265625 33.175781 -92.925781 32.5625 -92.25 C 31.945312 -91.582031 31.640625 -90.800781 31.640625 -89.90625 L 31.640625 0 L 8.203125 0 L 8.203125 -87.90625 C 8.203125 -102.632812 15.125 -110 28.96875 -110 L 49.734375 -110 C 63.566406 -110 70.484375 -102.632812 70.484375 -87.90625 Z M 70.484375 0 "/></g></g></g><g fill="#ff914d" fill-opacity="1"><g transform="translate(490.968725, 322.267148)"><g><path d="M 51.40625 -110 C 65.25 -110 72.171875 -102.632812 72.171875 -87.90625 L 72.171875 0 L 48.71875 0 L 48.71875 -36.328125 L 31.8125 -36.328125 L 31.8125 0 L 8.375 0 L 8.375 -87.90625 C 8.375 -102.632812 15.296875 -110 29.140625 -110 Z M 31.8125 -54.421875 L 48.71875 -54.421875 L 48.71875 -90.75 C 48.71875 -91.644531 48.410156 -92.425781 47.796875 -93.09375 C 47.179688 -93.757812 46.429688 -94.09375 45.546875 -94.09375 L 35 -94.09375 C 34.101562 -94.09375 33.347656 -93.757812 32.734375 -93.09375 C 32.117188 -92.425781 31.8125 -91.644531 31.8125 -90.75 Z M 31.8125 -54.421875 "/></g></g></g><g fill="#0097b2" fill-opacity="1"><g transform="translate(241.872116, 403.78287)"><g><path d="M 21.359375 -6.140625 L 8.78125 -6.140625 L 6.609375 0 L 1.46875 0 L 12.234375 -30.09375 L 17.9375 -30.09375 L 28.703125 0 L 23.515625 0 Z M 19.96875 -10.15625 L 15.09375 -24.125 L 10.15625 -10.15625 Z M 19.96875 -10.15625 "/></g></g></g><g fill="#0097b2" fill-opacity="1"><g transform="translate(286.697497, 403.78287)"><g><path d="M 24.25 -21.09375 C 24.25 -19.570312 23.890625 -18.132812 23.171875 -16.78125 C 22.453125 -15.425781 21.300781 -14.320312 19.71875 -13.46875 C 18.132812 -12.613281 16.101562 -12.1875 13.625 -12.1875 L 8.171875 -12.1875 L 8.171875 0 L 3.25 0 L 3.25 -30.046875 L 13.625 -30.046875 C 15.925781 -30.046875 17.875 -29.648438 19.46875 -28.859375 C 21.070312 -28.066406 22.269531 -26.992188 23.0625 -25.640625 C 23.851562 -24.285156 24.25 -22.769531 24.25 -21.09375 Z M 13.625 -16.21875 C 15.488281 -16.21875 16.882812 -16.640625 17.8125 -17.484375 C 18.738281 -18.335938 19.203125 -19.539062 19.203125 -21.09375 C 19.203125 -24.382812 17.34375 -26.03125 13.625 -26.03125 L 8.171875 -26.03125 L 8.171875 -16.21875 Z M 13.625 -16.21875 "/></g></g></g><g fill="#0097b2" fill-opacity="1"><g transform="translate(327.114384, 403.78287)"><g><path d="M 8.171875 -30.046875 L 8.171875 0 L 3.25 0 L 3.25 -30.046875 Z M 8.171875 -30.046875 "/></g></g></g></svg>