<svg xmlns="http://www.w3.org/2000/svg" xmlns:xlink="http://www.w3.org/1999/xlink" width="775" zoomAndPan="magnify" viewBox="0 0 581.25 612.749987" height="817" preserveAspectRatio="xMidYMid meet" version="1.0"><defs><g/><clipPath id="1b7431f060"><path d="M 69 24.195312 L 261 24.195312 L 261 242 L 69 242 Z M 69 24.195312 " clip-rule="nonzero"/></clipPath><clipPath id="330863f734"><path d="M 152 202 L 261 202 L 261 336.542969 L 152 336.542969 Z M 152 202 " clip-rule="nonzero"/></clipPath><clipPath id="c6747b46c0"><path d="M 320 119 L 511.679688 119 L 511.679688 336.542969 L 320 336.542969 Z M 320 119 " clip-rule="nonzero"/></clipPath><clipPath id="b3d8168003"><path d="M 320 24.195312 L 428 24.195312 L 428 159 L 320 159 Z M 320 24.195312 " clip-rule="nonzero"/></clipPath></defs><g clip-path="url(#1b7431f060)"><path fill="#ff0000" d="M 69 180.441406 L 260.128906 24.351562 L 260.128906 129.128906 L 181.101562 193.675781 L 155.074219 214.929688 C 147.996094 220.710938 143.9375 229.269531 143.9375 238.410156 C 143.9375 239.546875 144 240.675781 144.121094 241.789062 Z M 69 180.441406 " fill-opacity="1" fill-rule="nonzero"/></g><g clip-path="url(#330863f734)"><path fill="#db0000" d="M 160.542969 255.199219 C 155.480469 251.066406 152.578125 244.945312 152.578125 238.410156 C 152.578125 231.875 155.480469 225.753906 160.542969 221.621094 L 183.835938 202.601562 L 260.128906 264.914062 L 260.128906 336.535156 Z M 160.542969 255.199219 " fill-opacity="1" fill-rule="nonzero"/></g><g clip-path="url(#c6747b46c0)"><path fill="#009bff" d="M 320.378906 231.753906 L 399.40625 167.207031 L 425.433594 145.957031 C 432.511719 140.175781 436.574219 131.617188 436.574219 122.476562 C 436.574219 121.339844 436.511719 120.210938 436.386719 119.09375 L 511.507812 180.445312 L 320.378906 336.535156 Z M 320.378906 231.753906 " fill-opacity="1" fill-rule="nonzero"/></g><g clip-path="url(#b3d8168003)"><path fill="#3a51d6" d="M 320.378906 95.96875 L 320.378906 24.351562 L 419.96875 105.6875 C 425.027344 109.820312 427.933594 115.9375 427.933594 122.476562 C 427.933594 129.011719 425.027344 135.128906 419.96875 139.261719 L 396.675781 158.285156 Z M 320.378906 95.96875 " fill-opacity="1" fill-rule="nonzero"/></g><g fill="#ff914d" fill-opacity="1"><g transform="translate(69.849643, 515.282591)"><g><path d="M 53.546875 -62.4375 L 36.125 -62.4375 L 36.125 -69.125 C 36.125 -69.820312 35.882812 -70.429688 35.40625 -70.953125 C 34.925781 -71.472656 34.335938 -71.734375 33.640625 -71.734375 L 26.4375 -71.734375 C 25.738281 -71.734375 25.148438 -71.472656 24.671875 -70.953125 C 24.191406 -70.429688 23.953125 -69.820312 23.953125 -69.125 L 23.953125 -54.0625 C 23.953125 -53.363281 24.191406 -52.753906 24.671875 -52.234375 C 25.148438 -51.710938 25.738281 -51.453125 26.4375 -51.453125 L 38.21875 -51.453125 C 49.039062 -51.273438 54.453125 -45.515625 54.453125 -34.171875 L 54.453125 -15.96875 C 54.453125 -4.445312 49.039062 1.3125 38.21875 1.3125 L 22.78125 1.3125 C 11.957031 1.3125 6.546875 -4.445312 6.546875 -15.96875 L 6.546875 -24.734375 L 23.953125 -24.734375 L 23.953125 -15.3125 C 23.953125 -14.613281 24.191406 -14.003906 24.671875 -13.484375 C 25.148438 -12.960938 25.738281 -12.703125 26.4375 -12.703125 L 34.5625 -12.703125 C 35.257812 -12.703125 35.847656 -12.960938 36.328125 -13.484375 C 36.804688 -14.003906 37.046875 -14.613281 37.046875 -15.3125 L 37.046875 -31.9375 C 37.046875 -32.632812 36.804688 -33.242188 36.328125 -33.765625 C 35.847656 -34.296875 35.257812 -34.5625 34.5625 -34.5625 L 22.78125 -34.5625 C 11.957031 -34.5625 6.546875 -40.320312 6.546875 -51.84375 L 6.546875 -68.71875 C 6.546875 -80.238281 11.957031 -86 22.78125 -86 L 37.3125 -86 C 48.132812 -86 53.546875 -80.238281 53.546875 -68.71875 Z M 53.546875 -62.4375 "/></g></g></g><g fill="#ff914d" fill-opacity="1"><g transform="translate(143.532492, 515.282591)"><g><path d="M 40.1875 -86 C 51.007812 -86 56.421875 -80.238281 56.421875 -68.71875 L 56.421875 0 L 38.09375 0 L 38.09375 -28.40625 L 24.875 -28.40625 L 24.875 0 L 6.546875 0 L 6.546875 -68.71875 C 6.546875 -80.238281 11.957031 -86 22.78125 -86 Z M 24.875 -42.546875 L 38.09375 -42.546875 L 38.09375 -70.953125 C 38.09375 -71.648438 37.851562 -72.257812 37.375 -72.78125 C 36.894531 -73.300781 36.304688 -73.5625 35.609375 -73.5625 L 27.359375 -73.5625 C 26.660156 -73.5625 26.070312 -73.300781 25.59375 -72.78125 C 25.113281 -72.257812 24.875 -71.648438 24.875 -70.953125 Z M 24.875 -42.546875 "/></g></g></g><g fill="#ff914d" fill-opacity="1"><g transform="translate(220.7488, 515.282591)"><g><path d="M 40.71875 -84.703125 L 58.390625 -84.703125 L 40.84375 0 L 19.765625 0 L 2.21875 -84.703125 L 20.03125 -84.703125 L 30.375 -22.90625 Z M 40.71875 -84.703125 "/></g></g></g><g fill="#ff914d" fill-opacity="1"><g transform="translate(295.347735, 515.282591)"><g><path d="M 40.1875 -86 C 51.007812 -86 56.421875 -80.238281 56.421875 -68.71875 L 56.421875 0 L 38.09375 0 L 38.09375 -28.40625 L 24.875 -28.40625 L 24.875 0 L 6.546875 0 L 6.546875 -68.71875 C 6.546875 -80.238281 11.957031 -86 22.78125 -86 Z M 24.875 -42.546875 L 38.09375 -42.546875 L 38.09375 -70.953125 C 38.09375 -71.648438 37.851562 -72.257812 37.375 -72.78125 C 36.894531 -73.300781 36.304688 -73.5625 35.609375 -73.5625 L 27.359375 -73.5625 C 26.660156 -73.5625 26.070312 -73.300781 25.59375 -72.78125 C 25.113281 -72.257812 24.875 -71.648438 24.875 -70.953125 Z M 24.875 -42.546875 "/></g></g></g><g fill="#ff914d" fill-opacity="1"><g transform="translate(372.564043, 515.282591)"><g><path d="M 55.109375 0 L 36.78125 0 L 36.78125 -70.296875 C 36.78125 -70.992188 36.539062 -71.601562 36.0625 -72.125 C 35.582031 -72.65625 34.992188 -72.921875 34.296875 -72.921875 L 27.234375 -72.921875 C 26.535156 -72.921875 25.941406 -72.65625 25.453125 -72.125 C 24.972656 -71.601562 24.734375 -70.992188 24.734375 -70.296875 L 24.734375 0 L 6.421875 0 L 6.421875 -68.71875 C 6.421875 -80.238281 11.828125 -86 22.640625 -86 L 38.875 -86 C 49.695312 -86 55.109375 -80.238281 55.109375 -68.71875 Z M 55.109375 0 "/></g></g></g><g fill="#ff914d" fill-opacity="1"><g transform="translate(447.162978, 515.282591)"><g><path d="M 40.1875 -86 C 51.007812 -86 56.421875 -80.238281 56.421875 -68.71875 L 56.421875 0 L 38.09375 0 L 38.09375 -28.40625 L 24.875 -28.40625 L 24.875 0 L 6.546875 0 L 6.546875 -68.71875 C 6.546875 -80.238281 11.957031 -86 22.78125 -86 Z M 24.875 -42.546875 L 38.09375 -42.546875 L 38.09375 -70.953125 C 38.09375 -71.648438 37.851562 -72.257812 37.375 -72.78125 C 36.894531 -73.300781 36.304688 -73.5625 35.609375 -73.5625 L 27.359375 -73.5625 C 26.660156 -73.5625 26.070312 -73.300781 25.59375 -72.78125 C 25.113281 -72.257812 24.875 -71.648438 24.875 -70.953125 Z M 24.875 -42.546875 "/></g></g></g><g fill="#0097b2" fill-opacity="1"><g transform="translate(252.430464, 579.007832)"><g><path d="M 16.703125 -4.796875 L 6.859375 -4.796875 L 5.171875 0 L 1.15625 0 L 9.5625 -23.515625 L 14.03125 -23.515625 L 22.4375 0 L 18.390625 0 Z M 15.609375 -7.9375 L 11.796875 -18.859375 L 7.9375 -7.9375 Z M 15.609375 -7.9375 "/></g></g></g><g fill="#0097b2" fill-opacity="1"><g transform="translate(287.472922, 579.007832)"><g><path d="M 18.953125 -16.5 C 18.953125 -15.300781 18.671875 -14.171875 18.109375 -13.109375 C 17.546875 -12.054688 16.644531 -11.195312 15.40625 -10.53125 C 14.164062 -9.863281 12.578125 -9.53125 10.640625 -9.53125 L 6.390625 -9.53125 L 6.390625 0 L 2.53125 0 L 2.53125 -23.484375 L 10.640625 -23.484375 C 12.441406 -23.484375 13.96875 -23.171875 15.21875 -22.546875 C 16.46875 -21.929688 17.398438 -21.09375 18.015625 -20.03125 C 18.640625 -18.976562 18.953125 -17.800781 18.953125 -16.5 Z M 10.640625 -12.671875 C 12.109375 -12.671875 13.203125 -13.003906 13.921875 -13.671875 C 14.640625 -14.335938 15 -15.28125 15 -16.5 C 15 -19.0625 13.546875 -20.34375 10.640625 -20.34375 L 6.390625 -20.34375 L 6.390625 -12.671875 Z M 10.640625 -12.671875 "/></g></g></g><g fill="#0097b2" fill-opacity="1"><g transform="translate(319.069017, 579.007832)"><g><path d="M 6.390625 -23.484375 L 6.390625 0 L 2.53125 0 L 2.53125 -23.484375 Z M 6.390625 -23.484375 "/></g></g></g></svg>